<svg xmlns="http://www.w3.org/2000/svg" viewBox="0 0 128 128" role="img" aria-labelledby="title"><title id="title">BuscaClientes: globo y contactos</title><defs><radialGradient id="earth" cx=".3" cy=".23" r=".9"><stop stop-color="#1598df"/><stop offset=".57" stop-color="#064777"/><stop offset="1" stop-color="#05162f"/></radialGradient><linearGradient id="orb" x1="0" y1="0" x2="1" y2="1"><stop stop-color="#64cffe"/><stop offset=".55" stop-color="#52dbc9"/><stop offset="1" stop-color="#89f5d8"/></linearGradient><radialGradient id="find"><stop stop-color="#fff2b5"/><stop offset=".4" stop-color="#ffb244"/><stop offset="1" stop-color="#ff6900"/></radialGradient></defs><circle cx="61" cy="67" r="39" fill="url(#earth)" stroke="#6ae9f8" stroke-width="1.4"/><g fill="none" stroke="#61bafa" stroke-opacity=".35"><ellipse cx="61" cy="67" rx="19" ry="39"/><path d="M24 67h74M33 49q28 16 57 0M33 85q28-16 57 0"/></g><path d="M42 37 55 31 65 34 68 42 76 46 72 52 59 48 57 54 47 50 40 56 34 47Z M79 63 88 66 87 76 77 83 74 95 63 99 59 88 66 77 63 68Z M31 66 40 63 45 70 42 83 35 80Z" fill="#79e8d6" fill-opacity=".72"/><ellipse cx="61" cy="67" rx="62" ry="24" transform="rotate(-25 61 67)" stroke="url(#orb)" stroke-width="2.8" fill="none"/><g fill="#082340" stroke="#9ce8f9" stroke-width="2"><circle cx="28" cy="88" r="10"/><circle cx="94" cy="88" r="10"/></g><g fill="#f2ffff"><circle cx="28" cy="85" r="2.5"/><circle cx="94" cy="85" r="2.5"/></g><g stroke="#f2ffff" stroke-width="2" stroke-linecap="round" fill="none"><path d="M21 93q7-10 14 0M87 93q7-10 14 0"/></g><circle cx="103" cy="28" r="15" fill="#ff6900" fill-opacity=".16"/><circle cx="103" cy="28" r="11" fill="url(#find)" stroke="#ffe2a1" stroke-width="1.5"/><path d="M103 11v4M103 41v4M86 28h4M116 28h4M92 17l3 3M111 37l3 3M92 39l3-3M111 19l3-3" stroke="#ff9c43" stroke-width="2" stroke-linecap="round"/><circle cx="103" cy="25.5" r="2.7" fill="#fff"/><path d="M97 33q6-10 12 0" stroke="#fff" stroke-width="2" fill="none"/></svg>